HIERARCHY
ROOT Bip001_Pelvis
{
  OFFSET -7.25697 94.004 -3.48878
  CHANNELS 6 Xposition Yposition Zposition Zrotation Xrotation Yrotation
  JOINT Bip001_Spine
  {
    OFFSET 1.44608e-005 10.4157 -0.0118244
    CHANNELS 3 Zrotation Xrotation Yrotation
    JOINT Bip001_L_Thigh
    {
      OFFSET 11.2582 -10.4157 0.0118432
      CHANNELS 3 Zrotation Xrotation Yrotation
      JOINT Bip001_L_Calf
      {
        OFFSET -0.720717 -44.8687 0.366937
        CHANNELS 3 Zrotation Xrotation Yrotation
        JOINT Bip001_L_Foot
        {
          OFFSET -0.664439 -41.3745 -3.62995
          CHANNELS 3 Zrotation Xrotation Yrotation
          JOINT Bip001_L_Toe0
          {
            OFFSET 0.0541047 -10.4146 13.4033
            CHANNELS 3 Zrotation Xrotation Yrotation
            End Site
            {
              OFFSET -1.04503e-005 0 7.70137
            }
          }
        }
      }
    }
    JOINT Bip001_R_Thigh
    {
      OFFSET -11.2582 -10.4156 0.0118122
      CHANNELS 3 Zrotation Xrotation Yrotation
      JOINT Bip001_R_Calf
      {
        OFFSET 0.72059 -44.8687 0.36676
        CHANNELS 3 Zrotation Xrotation Yrotation
        JOINT Bip001_R_Foot
        {
          OFFSET 0.664321 -41.3745 -3.62979
          CHANNELS 3 Zrotation Xrotation Yrotation
          JOINT Bip001_R_Toe0
          {
            OFFSET -0.05417 -10.4146 13.4033
            CHANNELS 3 Zrotation Xrotation Yrotation
            End Site
            {
              OFFSET -1.04873e-005 0 7.70137
            }
          }
        }
      }
    }
    JOINT Bip001_Spine1
    {
      OFFSET 1.90638e-005 14.8539 1.10727
      CHANNELS 3 Zrotation Xrotation Yrotation
      JOINT Bip001_Spine2
      {
        OFFSET 2.28934e-005 14.7848 -1.7233
        CHANNELS 3 Zrotation Xrotation Yrotation
        JOINT Bip001_Neck
        {
          OFFSET 2.24514e-005 15.6905 -0.498826
          CHANNELS 3 Zrotation Xrotation Yrotation
          JOINT Bip001_L_Clavicle
          {
            OFFSET 6.17691 -0.000591152 0.00852867
            CHANNELS 3 Zrotation Xrotation Yrotation
            JOINT Bip001_L_UpperArm
            {
              OFFSET 11.773 -0.0611878 0.00197697
              CHANNELS 3 Zrotation Xrotation Yrotation
              JOINT Bip001_L_Forearm
              {
                OFFSET 26.4515 0.0817566 -2.1958
                CHANNELS 3 Zrotation Xrotation Yrotation
                JOINT Bip001_L_Hand
                {
                  OFFSET 32.8677 0.156744 1.67112
                  CHANNELS 3 Zrotation Xrotation Yrotation
                  JOINT Bip001_L_Finger0
                  {
                    OFFSET 6.16268 -2.25225 6.01674
                    CHANNELS 3 Zrotation Xrotation Yrotation
                    End Site
                    {
                      OFFSET 4.30499 -1.46662 0.618148
                    }
                  }
                  JOINT Bip001_L_Finger1
                  {
                    OFFSET 11.2958 -0.718373 -0.201963
                    CHANNELS 3 Zrotation Xrotation Yrotation
                    End Site
                    {
                      OFFSET 6.31953 -0.405162 -0.0802303
                    }
                  }
                }
              }
            }
          }
          JOINT Bip001_R_Clavicle
          {
            OFFSET -6.17691 -0.000574027 0.00851165
            CHANNELS 3 Zrotation Xrotation Yrotation
            JOINT Bip001_R_UpperArm
            {
              OFFSET -11.773 -0.0611516 0.00194365
              CHANNELS 3 Zrotation Xrotation Yrotation
              JOINT Bip001_R_Forearm
              {
                OFFSET -26.4514 0.0822335 -2.19736
                CHANNELS 3 Zrotation Xrotation Yrotation
                JOINT Bip001_R_Hand
                {
                  OFFSET -32.8679 0.156816 1.67144
                  CHANNELS 3 Zrotation Xrotation Yrotation
                  JOINT Bip001_R_Finger0
                  {
                    OFFSET -6.16272 -2.25224 6.0167
                    CHANNELS 3 Zrotation Xrotation Yrotation
                    End Site
                    {
                      OFFSET -4.30501 -1.46661 0.618134
                    }
                  }
                  JOINT Bip001_R_Finger1
                  {
                    OFFSET -11.2958 -0.718343 -0.201994
                    CHANNELS 3 Zrotation Xrotation Yrotation
                    End Site
                    {
                      OFFSET -6.31955 -0.405145 -0.0802476
                    }
                  }
                }
              }
            }
          }
          JOINT Bip001_Head
          {
            OFFSET 1.11782e-005 11.4912 2.09908
            CHANNELS 3 Zrotation Xrotation Yrotation
            End Site
            {
              OFFSET 2.95144e-005 21.2823 -2.83069e-005
            }
          }
        }
      }
    }
  }
}
MOTION
Frames:	16
Frame Time:	0.0333333
-1.68316 91.4098 31.4408 10.6364 1.11787 -142.461 -0.474627 -0.247453 -1.12675 8.26638 -17.4013 5.5978 0.291875 46.4255 -1.8498 -7.12441 -22.9211 30.8684 -1.33807e-008 7.73982e-009 2.1278e-007 6.17233 -40.3627 9.72531 -0.12654 37.5341 1.03912 17.5183 -23.9713 -7.08815 6.18556e-007 -2.17276e-007 1.27651e-006 -0.953902 -0.485654 -2.25553 -0.953912 -0.485613 -2.25554 -8.44888 -4.55709 -11.9962 -21.9605 6.11961 -1.33325 -39.0218 21.946 22.8551 -2.7514 0.795915 -28.9342 9.17615 0.204191 -5.26523 6.36111e-015 -1.59028e-015 1.59028e-015 3.8763e-015 -1.59028e-015 -0 27.1553 13.7005 19.9315 36.6786 26.2523 -22.7733 4.84327 3.04255 63.8326 2.64051 -1.83187 0.0526923 1.10348e-032 -7.95139e-016 7.95139e-016 4.41391e-032 -1.59028e-015 1.59028e-015 14.7606 0.782138 -11.2556 
-1.86093 91.3875 32.1223 11.1485 0.376199 -145.497 -0.416158 -0.356283 -1.11023 8.06887 -17.7275 4.75821 0.293316 46.6644 -1.94101 -7.37754 -23.1831 30.9835 -1.33807e-008 7.73982e-009 2.1278e-007 6.06492 -40.6238 9.26267 -0.129655 37.7454 1.024 18.0479 -25.9526 -8.10917 6.18556e-007 -2.17276e-007 1.27651e-006 -0.839037 -0.704436 -2.22305 -0.839076 -0.704459 -2.22304 -8.45137 -5.78563 -11.2758 -22.1646 7.51717 -1.58058 -37.8356 22.7357 21.8541 -2.73984 0.788385 -28.7973 9.08729 0.160126 -5.28465 2.98177e-015 1.59028e-015 1.59028e-015 3.77691e-015 3.18056e-015 1.59028e-015 27.671 14.6924 19.0706 36.7311 26.8473 -25.2104 4.71807 2.8192 61.2666 1.14454 0.0371888 -0.230271 -4.41391e-032 1.59028e-015 1.59028e-015 6.36111e-015 3.18056e-015 7.95139e-016 15.8449 -0.00323791 -10.1167 
-2.11393 91.4235 32.7931 11.3336 -0.38244 -148.625 -0.404761 -0.439987 -0.973081 7.53431 -17.6026 3.6115 0.285 46.3995 -2.00545 -7.61432 -23.1536 31.8549 -1.33807e-008 7.73982e-009 2.1278e-007 5.51838 -40.6237 7.94646 -0.127152 37.6524 1.01308 18.0791 -26.4435 -9.27414 6.18556e-007 -2.17276e-007 1.27651e-006 -0.815765 -0.873098 -1.94925 -0.815774 -0.873061 -1.94929 -7.48526 -6.37747 -10.7915 -23.1447 8.06074 -1.86265 -36.5578 23.6646 20.6166 -2.72745 0.781235 -28.6553 9.40329 0.123646 -4.78821 1.19271e-015 4.77083e-015 3.18055e-015 -2.38542e-015 3.18056e-015 3.18055e-015 27.3814 15.1324 18.7603 36.7784 27.1128 -27.8761 4.60714 2.64109 59.165 0.25999 -1.25418 0.061561 3.18055e-015 0 -7.95139e-016 6.36111e-015 1.59028e-015 -7.95139e-016 15.3922 -1.66248 -8.44896 
-2.43428 91.4401 33.4566 11.2641 -1.27874 -151.766 -0.42306 -0.542054 -0.769313 6.91516 -17.443 2.83321 0.276029 46.068 -2.05515 -7.78502 -22.8963 32.0662 -1.33807e-008 7.73982e-009 2.1278e-007 4.82484 -40.6636 6.56896 -0.132722 37.8676 0.998336 18.0326 -27.236 -10.1357 6.18556e-007 -2.17276e-007 1.27651e-006 -0.853383 -1.07844 -1.54316 -0.8534 -1.07844 -1.54317 -7.43401 -7.48357 -10.3254 -23.3231 9.28157 -1.99356 -34.8438 24.011 19.0067 -2.7067 0.769106 -28.4164 9.92718 0.378036 -4.25525 -2.38542e-015 1.59028e-015 -3.18055e-015 -1.59028e-015 0 -6.36111e-015 27.8426 16.0496 17.9321 37.1515 27.2679 -30.9111 4.54157 2.54494 57.9996 -0.258992 -5.18113 0.651304 -3.18055e-015 3.18055e-015 3.18055e-015 -3.18055e-015 3.18056e-015 1.59028e-015 15.1621 -2.12132 -6.7282 
-2.78083 91.4322 34.0015 11.0874 -2.0256 -154.756 -0.410898 -0.626929 -0.590834 6.45772 -17.198 2.46354 0.271344 45.9136 -2.09941 -7.77988 -22.6982 31.7851 -1.33807e-008 7.73983e-009 2.1278e-007 4.2531 -40.6328 5.31268 -0.144473 38.4696 0.967294 17.4092 -28.0672 -10.6894 6.18556e-007 -2.17276e-007 1.27651e-006 -0.828232 -1.24867 -1.18602 -0.828254 -1.24869 -1.18601 -7.58258 -8.55422 -9.80206 -23.3079 10.5189 -2.15113 -33.0703 23.8342 17.3792 -2.67772 0.752855 -28.0862 9.145 0.629935 -5.51077 -2.38542e-015 -4.77083e-015 6.36111e-015 -3.18055e-015 -6.36111e-015 6.36111e-015 28.1629 16.8435 17.157 38.1945 27.4565 -34.3811 4.52966 2.53326 57.8364 -1.42558 -6.31907 0.955705 -0 -3.18055e-015 -0 -0 -3.18056e-015 -0 13.1003 -2.3922 -4.0056 
-3.10301 91.4511 34.4527 10.8761 -2.71311 -157.53 -0.382395 -0.711595 -0.483311 6.13351 -16.937 2.36665 0.267276 45.7557 -2.13985 -7.82209 -22.456 31.4596 -1.33807e-008 7.73983e-009 2.1278e-007 3.99325 -40.3404 4.38488 -0.158071 39.0585 0.917638 17.2912 -29.7665 -11.4966 6.18556e-007 -2.17276e-007 1.27651e-006 -0.770903 -1.42006 -0.971356 -0.770914 -1.42005 -0.971309 -7.48508 -9.57419 -9.19733 -23.6038 11.6302 -2.2115 -31.7737 23.8908 16.2537 -2.70152 0.766118 -28.3571 8.70025 0.302971 -6.04877 -1.59028e-015 0 -0 -1.59028e-015 0 -3.18055e-015 28.245 17.6041 16.6519 39.4145 27.8512 -38.4125 4.58147 2.62605 58.9011 -2.78699 -6.91096 1.38648 0 0 -0 3.18055e-015 3.18056e-015 -1.59028e-015 11.0362 -3.49596 -1.18267 
-3.3943 91.4893 34.8411 10.6111 -3.4429 -160.092 -0.349189 -0.756148 -0.42983 5.92156 -16.7542 2.61215 0.260964 45.5546 -2.19665 -7.99721 -22.4936 30.7547 -1.33807e-008 7.73982e-009 2.1278e-007 4.02956 -40.1155 4.16402 -0.181489 39.9947 0.834652 17.6622 -32.9449 -11.8527 6.18556e-007 -2.17276e-007 1.27651e-006 -0.704138 -1.50908 -0.864204 -0.70412 -1.5091 -0.864211 -7.51408 -10.7551 -8.55825 -23.8581 12.8918 -2.13381 -31.0081 24.6106 15.3003 -2.76967 0.80613 -29.1428 9.18066 -1.16496 -5.76466 -7.95139e-016 0 -3.18055e-015 0 0 -0 28.5071 18.4998 16.0078 40.8655 28.2501 -42.7179 4.6758 2.8014 60.9018 -4.84344 -6.80339 1.84095 -6.36111e-015 -3.18055e-015 1.59028e-015 -6.36111e-015 0 -0 9.1005 -4.36761 1.57053 
-3.61245 91.5259 35.1962 10.503 -4.30262 -162.161 -0.271673 -0.813118 -0.454387 5.613 -16.9764 2.17295 0.260306 45.5204 -2.24336 -8.19753 -22.5328 30.3902 -1.33807e-008 7.73982e-009 2.1278e-007 4.16004 -40.1432 4.06788 -0.206306 41.171 0.775448 17.9268 -35.7265 -12.6826 6.18556e-007 -2.17276e-007 1.27651e-006 -0.549741 -1.62409 -0.912598 -0.549737 -1.62414 -0.912593 -7.65916 -11.6809 -7.90473 -23.9513 13.9321 -2.11791 -29.9333 24.802 14.0426 -2.83289 0.844377 -29.8774 9.11183 -1.86929 -5.66583 4.77083e-015 3.18055e-015 -0 4.77083e-015 3.18056e-015 -3.18055e-015 28.9371 19.0902 15.1724 42.3261 27.8914 -46.8709 4.77394 3.00049 63.1378 -6.65304 -6.6856 2.2892 -9.54166e-015 0 -3.18055e-015 -3.18055e-015 -3.18056e-015 -6.36111e-015 7.70941 -5.60784 4.26537 
-3.83273 91.5746 35.444 10.2854 -5.05344 -164.083 -0.19561 -0.831306 -0.465241 5.39414 -17.0071 1.94399 0.250991 45.3121 -2.31793 -8.42095 -22.2019 29.9086 -1.33807e-008 7.73982e-009 2.1278e-007 4.3413 -40.1123 4.17523 -0.234884 42.4898 0.736295 17.6378 -37.9054 -13.9487 6.18556e-007 -2.17276e-007 1.27651e-006 -0.3979 -1.66096 -0.93335 -0.397937 -1.661 -0.933348 -7.63085 -12.2987 -7.24985 -24.0537 14.6968 -2.31342 -28.5922 24.3131 12.3978 -2.86695 0.865465 -30.2755 8.73197 -1.08473 -6.00106 7.95139e-015 0 3.18055e-015 6.36111e-015 0 -0 29.2547 19.3463 14.2907 43.782 26.6731 -50.7394 4.85619 3.18184 65.1491 -8.22528 -6.86498 2.78218 6.36111e-015 0 -0 6.36111e-015 0 -3.18055e-015 6.28311 -6.90581 6.77962 
-4.00225 91.6247 35.6593 10.0877 -5.84762 -165.734 -0.125637 -0.841245 -0.49829 5.07571 -17.1742 1.34426 0.247738 45.1327 -2.34579 -8.68262 -22.0219 29.3677 -1.33807e-008 7.73983e-009 2.1278e-007 4.56068 -40.1303 4.45755 -0.268267 43.8251 0.686092 18.0132 -39.8254 -14.3483 6.18556e-007 -2.17276e-007 1.27651e-006 -0.258632 -1.68127 -0.998579 -0.258624 -1.68129 -0.998581 -7.201 -12.6819 -6.5471 -24.4076 15.2413 -2.73916 -27.3213 23.8391 10.6347 -2.88268 0.875334 -30.4602 9.01935 0.239199 -6.63904 0 6.36111e-015 -0 0 9.54167e-015 -0 29.2112 19.3499 13.4654 45.2022 24.5632 -54.0945 4.91296 3.31857 66.6475 -9.44869 -7.3971 3.11269 0 0 -3.18055e-015 -1.59028e-015 3.18056e-015 -3.18055e-015 5.68864 -7.59634 8.66039 
-4.13559 91.6792 35.8166 9.85294 -6.52841 -167.234 -0.0657426 -0.814893 -0.571009 4.99393 -17.2214 1.21432 0.243014 44.8608 -2.37596 -8.89695 -21.2711 28.646 -1.33807e-008 7.73983e-009 2.1278e-007 4.73832 -40.2084 4.7398 -0.304187 45.3014 0.665841 18.5392 -40.3601 -14.4343 6.18556e-007 -2.17276e-007 1.27651e-006 -0.139539 -1.62906 -1.14301 -0.139559 -1.62905 -1.143 -6.86487 -13.2117 -5.81766 -24.6791 15.9577 -3.15191 -26.0837 23.505 8.96697 -2.89718 0.884426 -30.6304 9.36143 1.67194 -7.11636 4.77083e-015 3.18055e-015 -3.18055e-015 4.77083e-015 6.36111e-015 -3.18055e-015 29.2524 19.4383 12.4348 46.5135 22.0334 -56.5209 4.94476 3.39504 67.4874 -10.2445 -8.06209 3.04726 -7.95139e-015 -3.18055e-015 -0 -7.95139e-015 3.18056e-015 -0 5.13487 -7.4455 9.96599 
-4.23142 91.7462 35.9251 9.60488 -7.15379 -168.601 0.00331131 -0.788397 -0.686155 4.99808 -17.1593 1.2693 0.237921 44.4692 -2.37533 -9.12814 -20.2713 27.785 -1.33807e-008 7.73982e-009 2.1278e-007 4.7239 -40.2284 4.79245 -0.339316 46.6877 0.661108 20.0431 -40.2911 -13.8665 6.18556e-007 -2.17276e-007 1.27651e-006 -0.00263483 -1.57667 -1.37264 -0.00265542 -1.57667 -1.37265 -6.16805 -13.7036 -4.93996 -25.2614 16.6466 -3.62197 -25.1532 23.0245 7.7086 -2.92766 0.903847 -30.9895 9.462 3.18698 -7.57703 -6.36111e-015 9.54166e-015 -0 -9.54166e-015 9.54167e-015 3.18055e-015 28.9472 19.4127 11.3017 47.7179 19.5919 -58.1995 4.95605 3.4249 67.8109 -10.5097 -8.45916 2.95418 -4.77083e-015 0 3.18055e-015 -6.36111e-015 -3.18056e-015 3.18055e-015 4.62513 -6.59054 10.7464 
-4.28876 91.8336 35.9764 9.34848 -7.74255 -169.919 0.0930317 -0.753574 -0.813213 5.09398 -17.031 1.55716 0.231328 44.0555 -2.39015 -9.28666 -19.1331 26.8414 -1.33807e-008 7.73983e-009 2.1278e-007 4.70403 -40.085 4.90339 -0.358316 47.488 0.677897 20.5143 -39.2316 -12.673 6.18556e-007 -2.17276e-007 1.27651e-006 0.175487 -1.5084 -1.62538 0.175479 -1.50839 -1.62541 -4.80501 -13.9148 -3.85378 -26.3946 17.085 -4.31133 -24.9092 22.7917 6.97479 -2.99717 0.949093 -31.8141 9.6487 4.2705 -7.8083 -1.76556e-031 -3.18055e-015 -3.18055e-015 -0 -3.18056e-015 -0 27.7808 19.0498 10.258 49.1906 17.6071 -59.178 4.94715 3.40697 67.6082 -10.7092 -8.97046 2.70677 0 0 -1.59028e-015 2.38542e-015 3.18056e-015 -0 3.88802 -6.00051 11.337 
-4.28833 91.9289 35.9947 9.15403 -8.40335 -171.079 0.216851 -0.71513 -0.965683 5.1905 -17.1644 1.70432 0.227615 43.9213 -2.45411 -9.26761 -18.2108 25.9238 -1.33807e-008 7.73982e-009 2.1278e-007 4.80524 -40.0061 5.25101 -0.347542 47.5611 0.767798 18.0986 -36.0755 -13.6406 6.18556e-007 -2.17276e-007 1.27651e-006 0.42175 -1.43381 -1.92871 0.421743 -1.4338 -1.92874 -3.7606 -13.9395 -2.7268 -27.1294 17.467 -5.20279 -24.9961 22.5237 6.39827 -3.07635 1.00241 -32.7628 9.84892 4.98553 -7.74619 6.36111e-015 6.36111e-015 -0 6.36111e-015 6.36111e-015 -0 26.548 18.4937 9.28705 51.0587 15.9564 -59.4485 4.92 3.34739 66.9438 -10.99 -9.9354 1.91131 -3.18055e-015 0 -0 -5.56597e-015 0 1.59028e-015 3.2074 -7.29449 11.8869 
-4.24816 92.0387 35.9189 8.85966 -8.96691 -172.3 0.322254 -0.663406 -1.09541 5.32166 -17.1556 2.12568 0.225167 43.7473 -2.47196 -9.40894 -17.527 24.312 -1.33807e-008 7.73982e-009 2.1278e-007 4.73267 -39.7295 5.59917 -0.317568 46.8739 0.850815 15.5401 -32.4761 -14.4512 6.18556e-007 -2.17276e-007 1.27651e-006 0.631848 -1.33288 -2.18738 0.6319 -1.33291 -2.18737 -2.53922 -13.534 -1.57641 -27.9645 17.4748 -6.25494 -25.0541 22.1679 5.77343 -3.12748 1.03787 -33.3815 10.5029 4.5198 -7.21462 6.36111e-015 -3.18055e-015 -0 3.18055e-015 0 3.18055e-015 25.2404 17.5799 8.38286 52.9786 14.9927 -59.3897 4.88861 3.27878 66.1783 -11.9232 -10.9831 1.10819 -3.18055e-015 3.18055e-015 -0 1.19271e-015 0 1.59028e-015 2.70741 -8.24574 12.2389 
-4.14258 92.1901 35.7921 8.65712 -9.55861 -173.344 0.459897 -0.624597 -1.23798 5.42948 -17.2559 2.32035 0.227608 43.6585 -2.48396 -9.65207 -17.048 22.98 -1.33807e-008 7.73982e-009 2.1278e-007 4.42191 -39.1538 5.5941 -0.274658 45.0631 0.83929 14.6919 -30.5655 -13.3928 6.18556e-007 -2.17276e-007 1.27651e-006 0.906346 -1.25908 -2.47116 0.906329 -1.25905 -2.47116 -1.51764 -12.9534 -0.404485 -28.607 17.3854 -7.39209 -25.0506 21.9439 4.96659 -3.14519 1.05022 -33.596 11.7069 3.3696 -6.86599 -1.27222e-014 0 9.54166e-015 -6.36111e-015 -6.36111e-015 9.54166e-015 24.1368 16.5242 7.46753 55.0868 14.3407 -58.816 4.83002 3.15774 64.8138 -13.8407 -11.3076 0.46841 -5.96354e-016 -3.18055e-015 -7.95139e-016 9.93923e-016 -3.18056e-015 -7.95139e-016 2.78989 -8.4628 12.2708 
